# xmcd
#
# Track frame offsets:
#	150
#	14157
#	29940
#	46050
#	59246
#	72736
#	90305
#	103848
#	117215
#	129237
#	145108
#	159838
#
# Disc length: 2376 seconds
# Revision: 0
# Processed by: cddbd v1.5.2PL0 Copyright (c) Steve Scherf et al.
# Submitted via: dBpowerAMP V12.0
#
DISCID=ad09460c
DTITLE=The Gibson Brothers - They Called It Music
DYEAR=2013
DGENRE=Country
TTITLE0=Buy a Ring, Find a Preacher
TTITLE1=They Called It Music
TTITLE2=The Darker the Night, the Better I See
TTITLE3=Dying For Someone to Live For
TTITLE4=I'll Work It Out
TTITLE5=Something Comin' to Me
TTITLE6=Daddy's Gone to Knoxville
TTITLE7=Dusty Old World
TTITLE8=Home on the River
TTITLE9=I Will Always Cross Your Mind
TTITLE10=Sundown and Sorrow
TTITLE11=Songbird's Song
EXTD=
EXTT0=
EXTT1=
EXTT2=
EXTT3=
EXTT4=
EXTT5=
EXTT6=
EXTT7=
EXTT8=
EXTT9=
EXTT10=
EXTT11=
PLAYORDER=
